<?xml version="1.0" encoding="UTF-8" standalone="no"?>
<!DOCTYPE svg PUBLIC "-//W3C//DTD SVG 1.1//EN"
 "http://www.w3.org/Graphics/SVG/1.1/DTD/svg11.dtd">
<!-- Generated by graphviz version 10.0.1 (20240210.2158)
 -->
<!-- Title: G Pages: 1 -->
<svg width="803pt" height="206pt"
 viewBox="0.00 0.00 803.25 206.00" xmlns="http://www.w3.org/2000/svg" xmlns:xlink="http://www.w3.org/1999/xlink">
<g id="graph0" class="graph" transform="scale(1 1) rotate(0) translate(4 202)">
<title>G</title>
<polygon fill="white" stroke="none" points="-4,4 -4,-202 799.25,-202 799.25,4 -4,4"/>
<!-- aws_instance.data -->
<g id="node1" class="node">
<title>aws_instance.data</title>
<polygon fill="none" stroke="black" points="517.12,-143 389.38,-143 389.38,-107 517.12,-107 517.12,-143"/>
<text text-anchor="middle" x="453.25" y="-119.2" font-family="sans-serif" font-size="14.00">aws_instance.data</text>
</g>
<!-- aws_security_group.private_sg -->
<g id="node6" class="node">
<title>aws_security_group.private_sg</title>
<polygon fill="none" stroke="black" points="340.25,-144 138.25,-144 138.25,-108 340.25,-108 340.25,-144"/>
<text text-anchor="middle" x="239.25" y="-120.2" font-family="sans-serif" font-size="14.00">aws_security_group.private_sg</text>
</g>
<!-- aws_instance.data&#45;&gt;aws_security_group.private_sg -->
<g id="edge1" class="edge">
<title>aws_instance.data&#45;&gt;aws_security_group.private_sg</title>
<path fill="none" stroke="black" d="M388.93,-125.3C377.13,-125.35 364.49,-125.41 351.74,-125.47"/>
<polygon fill="black" stroke="black" points="352.03,-121.97 342.04,-125.52 352.06,-128.97 352.03,-121.97"/>
</g>
<!-- aws_subnet.public -->
<g id="node8" class="node">
<title>aws_subnet.public</title>
<polygon fill="none" stroke="black" points="302.75,-36 175.75,-36 175.75,0 302.75,0 302.75,-36"/>
<text text-anchor="middle" x="239.25" y="-12.2" font-family="sans-serif" font-size="14.00">aws_subnet.public</text>
</g>
<!-- aws_instance.data&#45;&gt;aws_subnet.public -->
<g id="edge2" class="edge">
<title>aws_instance.data&#45;&gt;aws_subnet.public</title>
<path fill="none" stroke="black" d="M391.5,-106.6C386.1,-103.8 380.92,-100.62 376.25,-97 354.03,-79.79 363.22,-61.21 340.25,-45 332.24,-39.35 323.11,-34.88 313.7,-31.35"/>
<polygon fill="black" stroke="black" points="315.03,-28.1 304.44,-28.23 312.8,-34.74 315.03,-28.1"/>
</g>
<!-- aws_instance.master -->
<g id="node2" class="node">
<title>aws_instance.master</title>
<polygon fill="none" stroke="black" points="525,-88 381.5,-88 381.5,-52 525,-52 525,-88"/>
<text text-anchor="middle" x="453.25" y="-64.2" font-family="sans-serif" font-size="14.00">aws_instance.master</text>
</g>
<!-- aws_instance.master&#45;&gt;aws_security_group.private_sg -->
<g id="edge3" class="edge">
<title>aws_instance.master&#45;&gt;aws_security_group.private_sg</title>
<path fill="none" stroke="black" d="M382.25,-88.49C362.71,-93.65 341.32,-99.3 321.2,-104.62"/>
<polygon fill="black" stroke="black" points="320.42,-101.2 311.64,-107.14 322.21,-107.97 320.42,-101.2"/>
</g>
<!-- aws_instance.master&#45;&gt;aws_subnet.public -->
<g id="edge4" class="edge">
<title>aws_instance.master&#45;&gt;aws_subnet.public</title>
<path fill="none" stroke="black" d="M381.07,-52.54C359.56,-47.26 335.89,-41.46 314.21,-36.14"/>
<polygon fill="black" stroke="black" points="315.08,-32.75 304.54,-33.77 313.41,-39.55 315.08,-32.75"/>
</g>
<!-- aws_internet_gateway.main -->
<g id="node3" class="node">
<title>aws_internet_gateway.main</title>
<polygon fill="none" stroke="black" points="330.88,-198 147.62,-198 147.62,-162 330.88,-162 330.88,-198"/>
<text text-anchor="middle" x="239.25" y="-174.2" font-family="sans-serif" font-size="14.00">aws_internet_gateway.main</text>
</g>
<!-- aws_vpc.main -->
<g id="node9" class="node">
<title>aws_vpc.main</title>
<polygon fill="none" stroke="black" points="102.25,-117 0,-117 0,-81 102.25,-81 102.25,-117"/>
<text text-anchor="middle" x="51.12" y="-93.2" font-family="sans-serif" font-size="14.00">aws_vpc.main</text>
</g>
<!-- aws_internet_gateway.main&#45;&gt;aws_vpc.main -->
<g id="edge5" class="edge">
<title>aws_internet_gateway.main&#45;&gt;aws_vpc.main</title>
<path fill="none" stroke="black" d="M160.75,-161.55C153.04,-158.98 145.42,-156.13 138.25,-153 120.34,-145.18 101.81,-134.02 86.55,-123.87"/>
<polygon fill="black" stroke="black" points="88.51,-120.98 78.28,-118.25 84.58,-126.76 88.51,-120.98"/>
</g>
<!-- aws_route_table.public -->
<g id="node4" class="node">
<title>aws_route_table.public</title>
<polygon fill="none" stroke="black" points="530.25,-197 376.25,-197 376.25,-161 530.25,-161 530.25,-197"/>
<text text-anchor="middle" x="453.25" y="-173.2" font-family="sans-serif" font-size="14.00">aws_route_table.public</text>
</g>
<!-- aws_route_table.public&#45;&gt;aws_internet_gateway.main -->
<g id="edge6" class="edge">
<title>aws_route_table.public&#45;&gt;aws_internet_gateway.main</title>
<path fill="none" stroke="black" d="M376.01,-179.36C365.15,-179.41 353.84,-179.46 342.58,-179.52"/>
<polygon fill="black" stroke="black" points="342.85,-176.02 332.87,-179.56 342.88,-183.02 342.85,-176.02"/>
</g>
<!-- aws_route_table_association.public -->
<g id="node5" class="node">
<title>aws_route_table_association.public</title>
<polygon fill="none" stroke="black" points="795.25,-117 566.25,-117 566.25,-81 795.25,-81 795.25,-117"/>
<text text-anchor="middle" x="680.75" y="-93.2" font-family="sans-serif" font-size="14.00">aws_route_table_association.public</text>
</g>
<!-- aws_route_table_association.public&#45;&gt;aws_route_table.public -->
<g id="edge7" class="edge">
<title>aws_route_table_association.public&#45;&gt;aws_route_table.public</title>
<path fill="none" stroke="black" d="M627.73,-117.45C594.73,-129.16 551.83,-144.38 516.94,-156.76"/>
<polygon fill="black" stroke="black" points="516.08,-153.35 507.82,-159.99 518.42,-159.95 516.08,-153.35"/>
</g>
<!-- aws_route_table_association.public&#45;&gt;aws_subnet.public -->
<g id="edge8" class="edge">
<title>aws_route_table_association.public&#45;&gt;aws_subnet.public</title>
<path fill="none" stroke="black" d="M639.74,-80.6C610.14,-67.84 568.5,-51.64 530.25,-43 458.16,-26.71 373.79,-20.88 314.7,-18.86"/>
<polygon fill="black" stroke="black" points="314.85,-15.37 304.74,-18.56 314.63,-22.36 314.85,-15.37"/>
</g>
<!-- aws_security_group.private_sg&#45;&gt;aws_vpc.main -->
<g id="edge9" class="edge">
<title>aws_security_group.private_sg&#45;&gt;aws_vpc.main</title>
<path fill="none" stroke="black" d="M137.83,-111.43C129.64,-110.24 121.53,-109.07 113.75,-107.94"/>
<polygon fill="black" stroke="black" points="114.51,-104.51 104.11,-106.54 113.5,-111.44 114.51,-104.51"/>
</g>
<!-- aws_subnet.private -->
<g id="node7" class="node">
<title>aws_subnet.private</title>
<polygon fill="none" stroke="black" points="305.38,-90 173.12,-90 173.12,-54 305.38,-54 305.38,-90"/>
<text text-anchor="middle" x="239.25" y="-66.2" font-family="sans-serif" font-size="14.00">aws_subnet.private</text>
</g>
<!-- aws_subnet.private&#45;&gt;aws_vpc.main -->
<g id="edge10" class="edge">
<title>aws_subnet.private&#45;&gt;aws_vpc.main</title>
<path fill="none" stroke="black" d="M172.63,-81.52C153.47,-84.3 132.61,-87.32 113.71,-90.07"/>
<polygon fill="black" stroke="black" points="113.43,-86.57 104.03,-91.47 114.43,-93.5 113.43,-86.57"/>
</g>
<!-- aws_subnet.public&#45;&gt;aws_vpc.main -->
<g id="edge11" class="edge">
<title>aws_subnet.public&#45;&gt;aws_vpc.main</title>
<path fill="none" stroke="black" d="M175.39,-31.91C162.85,-35.54 149.95,-39.89 138.25,-45 120.34,-52.82 101.81,-63.98 86.55,-74.13"/>
<polygon fill="black" stroke="black" points="84.58,-71.24 78.28,-79.75 88.51,-77.02 84.58,-71.24"/>
</g>
</g>
</svg>
